# xmcd
# 
# Track frame offsets:
#     150
#     16317
#     31270
#     54605
#     63635
#     77150
#     92235
#     106000
#     120450
#     135247
#     149157
#     167080
# 
# Disc length: 2338
# 
# Revision: 1
# Processed by: cddbd v1.5.2PL0 Copyright (c) Steve Scherf et al.
# Submitted via: BonkEnc v1.0.8
# 
DISCID=9e09200c
DTITLE=憂歌団 - Second Hand
DYEAR=89
DGENRE=Blues
TTITLE0=Hawaiian Blues
TTITLE1=Massugu Arukenai
TTITLE2=Kokoro no Nayami
TTITLE3=Maddy Jumps One
TTITLE4=Orenomura deha Ore mo Ninkimon
TTITLE5=Corina Corina
TTITLE6=Oseiji Obachan
TTITLE7=10$ no Koi
TTITLE8=Takuwan
TTITLE9=Doterai Onna
TTITLE10=Summertime
TTITLE11=KI-mura Jamps Again
EXTD=
EXTT0=
EXTT1=
EXTT2=
EXTT3=
EXTT4=
EXTT5=
EXTT6=
EXTT7=
EXTT8=
EXTT9=
EXTT10=
EXTT11=
PLAYORDER=
